<?xml version="1.0" standalone="no"?>
<!DOCTYPE svg PUBLIC "-//W3C//DTD SVG 20010904//EN"
 "http://www.w3.org/TR/2001/REC-SVG-20010904/DTD/svg10.dtd">
<svg version="1.0" xmlns="http://www.w3.org/2000/svg"
 width="932.000000pt" height="1280.000000pt" viewBox="0 0 932.000000 1280.000000"
 preserveAspectRatio="xMidYMid meet">
<metadata>
Created by potrace 1.15, written by Peter Selinger 2001-2017
</metadata>
<g transform="translate(0.000000,1280.000000) scale(0.100000,-0.100000)"
fill="#000000" stroke="none">
<path d="M3964 12790 c-127 -26 -279 -136 -379 -275 -203 -284 -272 -741 -186
-1235 59 -337 193 -646 353 -816 l49 -52 -88 -48 c-268 -145 -508 -311 -658
-455 l-90 -86 -128 -37 c-283 -81 -666 -231 -917 -359 -219 -111 -429 -261
-492 -350 -21 -30 -20 -30 24 9 147 128 582 372 774 435 38 12 119 41 179 65
61 23 128 45 150 49 43 7 281 88 328 112 33 17 46 11 27 -12 -7 -9 -30 -57
-50 -107 -29 -72 -42 -93 -61 -99 -397 -121 -1151 -390 -1329 -473 -109 -51
-62 -44 66 10 60 25 203 75 318 111 115 36 237 78 270 94 33 16 85 33 115 40
31 6 78 22 105 35 36 17 67 24 111 24 48 0 75 7 121 29 65 31 221 77 231 68 5
-6 -1 -69 -33 -315 -35 -264 -79 -360 -285 -618 -179 -225 -244 -363 -243
-514 2 -192 191 -772 369 -1134 91 -184 264 -467 367 -598 l30 -38 -45 0
c-114 0 -363 100 -443 177 -55 54 -142 170 -263 351 -56 83 -121 167 -144 187
-58 50 -167 100 -256 119 -141 28 -183 107 -252 466 -26 133 -49 206 -85 267
-24 41 -28 44 -57 38 -137 -27 -217 -113 -217 -235 0 -106 59 -264 169 -454
28 -49 49 -91 45 -95 -3 -3 -119 -4 -257 -1 -585 12 -676 4 -789 -64 l-53 -32
1 -84 c1 -62 8 -103 25 -150 23 -61 26 -65 69 -78 69 -20 317 -16 500 8 85 11
203 23 263 27 116 7 119 5 92 -46 -15 -31 -40 -43 -129 -66 -35 -9 -73 -28
-94 -46 -22 -20 -38 -27 -44 -21 -6 6 -25 1 -51 -13 -23 -13 -100 -43 -172
-68 -205 -70 -265 -107 -284 -175 -21 -70 22 -137 145 -228 64 -48 74 -52 105
-45 62 14 178 68 324 151 148 84 222 117 288 130 28 6 37 4 37 -6 0 -21 -121
-145 -239 -243 -102 -87 -155 -145 -201 -223 l-22 -38 57 -60 c59 -61 140
-110 182 -110 31 0 106 70 199 185 114 142 122 150 127 145 10 -11 37 -404 37
-542 0 -168 18 -255 75 -370 70 -138 172 -270 220 -282 14 -4 64 -32 112 -63
136 -89 214 -115 358 -121 197 -7 343 29 634 160 85 38 158 65 161 61 8 -9 87
-414 124 -638 41 -242 51 -374 51 -645 -1 -227 -3 -266 -23 -355 -63 -283
-169 -534 -329 -780 -190 -292 -428 -515 -688 -645 -209 -104 -410 -145 -608
-122 -213 24 -308 68 -404 184 -75 92 -159 273 -178 386 -4 23 -10 44 -14 46
-14 9 -139 -23 -188 -47 -55 -28 -120 -94 -135 -138 -11 -32 -42 -46 -63 -29
-12 10 -15 39 -15 124 0 201 -29 366 -81 469 -45 87 -138 159 -226 172 -35 6
-41 3 -80 -37 -50 -53 -145 -184 -162 -226 -12 -28 -11 -34 14 -66 52 -68 89
-200 101 -365 l7 -93 29 6 c71 14 249 18 338 7 290 -36 425 -117 519 -314 66
-137 77 -291 32 -436 l-19 -60 33 -82 c18 -45 38 -111 45 -148 21 -125 0 -111
165 -111 153 0 183 -9 119 -36 -38 -16 -51 -16 -212 2 l-52 6 0 -40 c0 -48 6
-52 108 -53 42 -1 109 -4 147 -8 l70 -6 74 49 c260 171 673 298 1113 342 l163
16 50 47 50 46 -45 -47 -44 -48 136 0 136 0 188 253 c103 138 192 257 197 262
28 28 -120 -197 -222 -340 -58 -80 -19 -43 81 78 150 179 194 239 333 451 744
1132 1429 2344 2727 4823 216 412 328 834 354 1326 6 121 5 142 -12 180 -32
73 -103 195 -216 369 -113 175 -202 346 -237 458 -22 70 -81 375 -81 418 0 16
109 -25 324 -120 188 -83 320 -132 339 -125 33 11 -194 127 -414 212 -79 31
-171 67 -204 81 l-60 25 -22 90 c-43 179 -134 309 -296 428 -32 24 -57 44 -55
45 8 7 230 -17 373 -40 323 -52 923 -184 1055 -232 30 -12 85 -25 122 -30 36
-6 77 -17 90 -25 12 -8 39 -18 58 -22 53 -11 90 -33 90 -55 0 -10 -5 -22 -11
-26 -15 -9 -35 -59 -69 -169 -39 -127 -113 -315 -145 -367 -36 -60 -40 -68
-59 -111 -9 -20 -33 -56 -54 -80 -85 -94 -88 -112 -37 -219 38 -78 39 -101 6
-147 -10 -14 -55 -102 -99 -196 -44 -93 -137 -289 -207 -435 -133 -278 -245
-532 -244 -553 0 -6 5 -1 12 13 161 357 571 1179 598 1203 38 31 135 16 190
-30 26 -23 30 -31 24 -59 -29 -156 -459 -1020 -1283 -2579 -573 -1084 -1948
-3647 -1991 -3709 -14 -21 -33 -50 -43 -63 -9 -14 -19 -45 -23 -68 -3 -24 -14
-54 -24 -67 -10 -13 -40 -66 -66 -118 -26 -52 -93 -178 -148 -280 -146 -269
-260 -508 -261 -550 -2 -85 34 -35 187 255 49 94 86 161 82 150 -10 -28 -290
-756 -365 -950 -35 -88 -72 -184 -83 -214 -12 -30 -23 -49 -24 -44 -6 18 64
271 132 478 6 16 5 17 -4 5 -15 -21 -79 -217 -146 -445 -30 -104 -58 -198 -61
-208 -5 -15 -2 -16 20 -6 19 9 57 72 155 258 326 622 461 882 562 1084 60 119
111 217 113 217 2 0 -29 -87 -69 -193 -40 -105 -100 -268 -133 -362 -95 -268
-209 -646 -194 -645 4 1 25 24 48 53 32 41 54 91 103 230 74 209 180 495 181
485 0 -6 -24 -111 -66 -283 -3 -11 4 -4 15 15 11 19 20 46 21 60 1 35 28 91
88 184 57 86 62 90 32 25 -17 -38 -19 -65 -19 -199 1 -85 4 -168 8 -185 8 -35
17 -2 102 402 30 139 57 253 62 253 10 0 4 -132 -23 -505 -10 -137 -17 -251
-15 -253 9 -9 146 255 170 328 15 47 37 103 48 124 18 37 20 38 33 22 19 -26
32 -98 55 -296 10 -96 26 -210 35 -253 22 -117 71 -207 53 -100 -4 27 -10 125
-13 218 -5 178 -6 179 30 -85 9 -69 20 -129 24 -133 4 -5 11 8 14 27 4 20 23
88 42 152 33 108 35 120 25 177 -16 100 -25 227 -14 227 5 0 15 -35 22 -77 12
-67 15 -75 23 -53 10 26 9 39 -23 298 -11 89 -19 184 -17 210 l3 47 18 -40
c11 -22 54 -126 97 -231 111 -272 130 -306 183 -337 24 -14 85 -69 135 -122
92 -95 92 -96 117 -79 25 16 25 16 6 43 -21 30 -95 176 -105 206 -4 13 17 -1
55 -37 33 -32 89 -78 124 -103 l63 -46 77 8 76 8 -51 60 c-62 72 -124 174
-151 247 -23 61 -25 62 87 -72 129 -155 224 -250 249 -250 49 0 205 -53 311
-105 117 -57 194 -109 286 -194 38 -34 69 -54 91 -58 33 -5 39 -1 135 97 89
90 104 110 128 173 110 291 249 570 413 825 29 46 52 84 50 86 -2 2 -35 14
-74 26 -254 80 -316 107 -450 195 -394 259 -632 720 -715 1385 -20 159 -29
479 -20 670 25 485 30 561 38 577 5 10 13 47 16 83 13 111 124 616 134 605 2
-2 -6 -47 -19 -99 l-23 -96 35 -36 c57 -61 170 -129 265 -160 81 -26 101 -29
219 -28 113 0 141 4 211 27 158 52 266 144 352 299 98 177 136 337 183 776 8
79 15 112 25 112 25 0 64 -45 137 -155 42 -64 86 -119 106 -132 105 -70 285
35 285 166 0 89 -60 160 -237 281 -138 94 -207 169 -207 226 0 22 1 21 224
-98 104 -56 216 -112 248 -125 228 -92 364 -42 422 156 19 64 20 91 5 91 -6 0
-68 27 -138 61 -179 87 -254 117 -308 124 -97 14 -353 157 -353 197 0 17 142
8 435 -27 77 -9 208 -18 292 -19 148 -1 152 0 177 23 46 44 77 122 83 211 7
93 0 106 -77 145 -96 48 -170 53 -690 47 -181 -2 -258 0 -293 10 l-48 13 26
35 c85 114 170 322 181 446 15 159 -48 243 -193 259 -53 6 -62 5 -80 -14 -10
-11 -27 -44 -35 -73 -17 -55 -23 -85 -58 -273 -28 -150 -55 -230 -97 -292 -44
-65 -82 -89 -155 -96 -63 -6 -141 -37 -175 -69 -13 -12 -23 -17 -23 -11 0 20
37 97 72 153 60 94 182 327 281 536 200 421 310 670 311 699 1 28 4 30 46 33
56 4 72 18 46 38 -11 8 -30 14 -42 14 -13 0 -29 6 -36 13 -7 7 -35 21 -63 31
-122 46 -202 102 -246 172 -29 47 -20 88 35 161 24 32 65 105 91 163 26 58 63
126 82 153 34 48 55 107 94 255 28 107 66 162 112 162 49 0 122 -24 249 -82
123 -55 188 -71 188 -46 0 18 -25 40 -62 56 -21 9 -28 19 -28 39 -1 16 -7 39
-15 53 l-14 25 -1 -27 c0 -34 -24 -58 -58 -58 -37 0 -100 45 -108 76 -11 42 6
49 86 35 39 -7 73 -11 76 -8 8 7 -74 37 -120 43 -32 5 -63 -1 -119 -20 -41
-14 -89 -26 -105 -26 -16 0 -116 29 -223 65 -543 180 -1303 335 -1648 335 -53
0 -64 5 -251 117 -107 64 -352 222 -545 351 l-350 235 -108 1 -108 1 7 291 c5
216 4 311 -6 372 -7 45 -16 84 -19 87 -13 7 -393 -91 -476 -124 -122 -47 -187
-89 -199 -129 -12 -43 2 -135 45 -286 22 -81 38 -120 51 -127 31 -17 106 1
161 38 29 19 66 37 84 40 29 5 33 2 48 -33 18 -41 27 -196 12 -210 -4 -4 -36
-2 -70 5 -262 54 -436 341 -454 746 -16 384 113 703 325 803 33 16 111 42 173
58 l112 28 -7 101 c-7 117 -24 195 -67 305 l-30 80 -112 -1 c-62 -1 -130 -5
-153 -9z m243 -90 c32 -66 54 -164 60 -260 l5 -85 -93 -23 c-210 -53 -316
-139 -410 -335 -142 -298 -138 -739 10 -1042 78 -160 185 -264 318 -310 35
-13 64 -26 65 -31 0 -5 -69 -46 -153 -91 l-154 -83 -48 48 c-162 157 -297 470
-358 827 -26 154 -36 442 -20 585 44 390 198 667 441 794 67 35 86 41 170 47
144 10 142 10 167 -41z m280 -1287 c10 -38 10 -344 -1 -525 l-8 -147 -50 -10
c-27 -6 -62 -18 -78 -26 -16 -8 -31 -15 -35 -15 -3 0 -5 31 -5 68 0 81 -22
161 -54 198 -20 24 -27 26 -69 20 -28 -4 -67 -21 -98 -42 -28 -20 -66 -38 -84
-41 l-34 -5 -25 83 c-36 119 -45 167 -46 226 0 51 1 53 44 78 76 44 166 76
341 121 94 24 176 43 182 44 7 0 16 -12 20 -27z m-1876 -2800 c-5 -10 -17 -27
-26 -38 -16 -19 -17 -19 -3 5 26 46 29 50 34 50 3 0 0 -8 -5 -17z m2152 -2572
c-19 -25 -73 -42 -73 -23 0 10 37 45 65 60 28 15 32 -4 8 -37z m-1176 -107
c-3 -3 -12 -4 -19 -1 -8 3 -5 6 6 6 11 1 17 -2 13 -5z m1748 -539 c47 -24 64
-39 82 -74 29 -55 31 -161 5 -237 -26 -75 -118 -196 -282 -372 -80 -86 -164
-176 -186 -201 -61 -68 -127 -165 -114 -169 8 -3 7 -8 -1 -18 -9 -11 -22 -5
-73 33 -71 54 -93 74 -53 50 15 -9 39 -24 55 -33 25 -15 26 -15 7 1 -26 22
-207 133 -375 231 -223 130 -316 239 -365 426 -36 136 0 228 110 283 51 25 71
30 130 29 118 -2 255 -70 360 -180 52 -53 115 -157 115 -188 0 -9 5 -16 10
-16 6 0 10 11 10 23 0 13 9 49 20 81 100 293 336 436 545 331z m-952 10 c38
-8 94 -26 125 -40 57 -26 152 -93 152 -107 0 -4 -21 8 -46 27 -83 64 -167 97
-294 119 -60 10 -73 14 -45 15 22 0 71 -6 108 -14z m405 -37 c4 -49 -12 -78
-44 -78 -32 0 -74 42 -74 74 0 32 25 47 75 43 38 -2 40 -3 43 -39z m-88 -142
c0 -18 -17 8 -24 34 l-7 25 15 -25 c9 -14 15 -29 16 -34z m1627 -98 c-3 -8 -6
-5 -6 6 -1 11 2 17 5 13 3 -3 4 -12 1 -19z m463 -128 c5 0 15 -10 21 -22 11
-22 11 -22 -7 -7 -10 9 -28 22 -39 28 -17 10 -17 12 -2 7 10 -3 23 -6 27 -6z
m-1689 -1552 c-10 -24 -78 -167 -151 -318 -293 -607 -397 -859 -455 -1092 -25
-100 -79 -237 -110 -280 -17 -22 -17 -22 -11 30 26 210 308 878 642 1520 92
177 123 227 85 140z m-4655 -1214 c20 -19 24 -31 19 -52 -9 -37 -25 -52 -66
-58 -71 -12 -118 67 -69 116 29 29 84 27 116 -6z m599 -184 c0 -33 -66 -70
-90 -50 -37 31 -1 83 54 78 31 -3 36 -7 36 -28z m3195 -369 c-157 -432 -392
-964 -354 -803 18 77 472 1177 482 1168 2 -3 -55 -167 -128 -365z m-2468 -318
c25 -22 23 -59 -4 -77 -47 -33 -98 -10 -98 44 0 47 64 68 102 33z m-118 -211
c14 -17 15 -28 5 -97 -14 -94 -31 -115 -92 -115 -69 0 -87 19 -87 94 0 52 4
66 23 83 56 52 122 67 151 35z m-300 -53 c19 -28 11 -46 -29 -65 -50 -23 -70
-16 -70 26 0 27 6 37 25 47 36 18 57 16 74 -8z m477 1 c29 -16 25 -65 -6 -86
-23 -15 -27 -15 -50 0 -29 19 -33 56 -9 80 18 19 38 20 65 6z m4796 -272 c26
-25 30 -50 9 -68 -22 -17 -57 -8 -79 21 -39 53 20 94 70 47z"/>
<path d="M5720 12578 c0 -29 -7 -210 -15 -403 -23 -575 -39 -1392 -30 -1627
l7 -217 36 -12 c21 -7 60 -9 96 -6 59 6 152 32 160 46 12 19 37 357 51 671 18
432 26 560 34 560 3 0 26 -51 50 -113 55 -143 127 -280 182 -351 l43 -55 44
32 c60 43 124 127 217 280 42 71 79 126 81 124 6 -6 -20 -191 -72 -502 -46
-283 -69 -449 -80 -601 l-6 -91 29 -12 c18 -7 68 -11 133 -9 l105 3 28 80 c78
223 153 545 272 1170 47 248 106 547 132 665 25 118 47 224 47 235 1 15 -22
29 -117 68 l-118 49 -37 -18 c-68 -35 -203 -181 -300 -326 -138 -205 -252
-338 -290 -338 -11 0 -53 99 -122 290 -66 181 -126 306 -191 393 l-51 67 -159
0 -159 0 0 -52z m335 -62 c58 -81 119 -212 185 -396 59 -164 128 -320 142
-320 21 0 99 63 165 133 38 42 116 144 173 227 105 156 200 266 269 314 l38
27 92 -37 c71 -28 91 -40 87 -53 -22 -71 -89 -398 -186 -911 -106 -562 -154
-770 -241 -1051 l-30 -96 -65 -6 c-110 -8 -108 -10 -101 102 8 118 24 232 82
584 45 275 68 440 80 577 l7 75 -27 -25 c-40 -38 -113 -141 -195 -277 -40 -66
-96 -147 -125 -179 -62 -69 -64 -69 -126 37 -41 69 -83 164 -184 422 -32 81
-62 144 -65 140 -18 -20 -44 -356 -60 -758 -10 -271 -26 -513 -38 -602 -7 -44
-10 -49 -42 -60 -19 -7 -63 -12 -97 -12 l-63 -1 0 458 c0 251 5 592 10 757 19
595 31 931 36 963 l5 32 114 0 114 0 46 -64z"/>
<path d="M2835 12494 c-134 -51 -182 -75 -206 -100 l-22 -23 38 -133 c85 -300
239 -814 295 -983 111 -338 140 -500 106 -590 -39 -102 -164 -101 -258 3 -104
115 -200 360 -343 873 -82 296 -135 463 -186 585 l-32 77 -76 -6 c-80 -6 -190
-36 -255 -69 l-38 -20 6 -66 c35 -347 166 -736 436 -1287 113 -229 190 -346
304 -461 132 -132 239 -185 399 -200 132 -11 256 25 329 98 92 92 122 214 115
457 -5 196 -15 254 -107 631 -38 157 -92 393 -120 525 -78 364 -135 555 -202
678 -20 36 -28 42 -58 44 -19 0 -75 -14 -125 -33z m138 -36 c93 -226 125 -337
197 -683 22 -110 74 -337 115 -505 100 -411 108 -462 109 -660 1 -144 -2 -174
-22 -237 -29 -95 -73 -150 -147 -188 -56 -28 -65 -30 -179 -30 -99 0 -131 4
-178 22 -162 61 -304 206 -443 453 -110 197 -321 678 -390 892 -73 224 -134
535 -109 557 22 20 134 53 199 58 l70 5 18 -48 c53 -139 106 -306 174 -549 91
-328 122 -426 180 -575 106 -270 194 -392 306 -425 90 -26 161 -5 207 63 22
31 25 49 28 135 5 123 -15 215 -103 487 -59 180 -196 634 -295 980 l-42 144
21 17 c12 10 40 25 64 33 23 9 71 27 107 40 75 27 106 31 113 14z"/>
<path d="M7562 12032 c-52 -152 -196 -560 -322 -907 -126 -346 -249 -688 -273
-760 -25 -71 -48 -137 -52 -146 -5 -14 12 -20 117 -39 204 -37 497 -99 590
-124 l88 -25 35 41 c196 230 42 460 -330 494 l-73 7 35 101 c42 122 112 261
156 309 l32 36 50 -14 c66 -19 116 -18 142 0 47 33 118 195 138 316 5 35 4 37
-40 58 -24 11 -50 21 -56 21 -5 0 -33 10 -60 21 -36 16 -48 26 -45 38 3 9 12
58 21 109 15 91 37 152 54 152 19 0 94 -37 273 -132 158 -84 355 -178 373
-178 9 0 75 108 114 188 21 42 48 108 59 145 l20 68 -116 78 c-290 193 -517
315 -720 385 -57 20 -107 36 -110 36 -4 0 -49 -125 -100 -278z m220 182 c174
-63 408 -190 657 -356 101 -68 103 -71 97 -101 -7 -39 -111 -251 -130 -266
-20 -16 -98 17 -308 130 -93 50 -206 108 -250 129 -77 36 -83 37 -105 23 -38
-25 -64 -87 -84 -202 -11 -58 -21 -112 -24 -118 -10 -28 45 -71 126 -98 l80
-27 -7 -32 c-15 -71 -50 -163 -79 -205 -34 -52 -45 -54 -148 -30 -41 10 -63
10 -75 3 -31 -20 -92 -108 -136 -199 -39 -79 -126 -317 -126 -345 0 -6 37 -10
93 -10 153 0 273 -38 352 -111 72 -66 80 -130 30 -230 -35 -67 -47 -74 -103
-61 -204 50 -605 132 -643 132 -5 0 -9 6 -9 13 0 16 132 388 348 982 88 242
204 567 257 723 54 155 102 282 106 282 4 0 41 -12 81 -26z"/>
<path d="M1425 12076 c-70 -22 -141 -64 -208 -120 l-65 -55 39 -105 c58 -159
108 -273 265 -604 138 -291 171 -363 214 -473 l20 -49 -48 -24 c-52 -26 -174
-66 -203 -66 -15 0 -40 42 -110 183 -163 326 -427 807 -465 846 -19 21 -155
-8 -250 -53 -73 -34 -168 -112 -179 -145 -10 -34 25 -101 113 -218 153 -203
358 -493 654 -923 156 -228 311 -453 344 -499 l59 -84 70 6 c38 3 102 13 141
22 l72 17 -13 43 c-22 73 -64 152 -146 276 -43 65 -90 141 -104 169 l-26 50
45 20 c65 27 204 63 221 56 8 -3 53 -83 101 -178 131 -262 173 -318 237 -318
29 0 197 43 214 55 4 2 -73 252 -107 350 -79 222 -167 431 -400 950 -204 454
-210 466 -301 690 l-78 190 -33 2 c-18 1 -51 -4 -73 -11z m109 -143 c56 -142
174 -414 336 -773 257 -570 370 -849 445 -1098 27 -88 32 -117 23 -123 -7 -5
-41 -16 -75 -25 -54 -14 -65 -15 -79 -3 -31 25 -100 141 -179 299 -42 85 -85
166 -96 181 l-19 27 -111 -29 c-113 -29 -220 -72 -239 -94 -13 -16 46 -130
139 -269 40 -59 88 -140 107 -179 l34 -72 -42 -11 c-24 -6 -66 -13 -94 -17
l-51 -6 -50 72 c-27 40 -170 248 -318 462 -327 475 -447 644 -626 885 -75 102
-141 198 -144 213 -6 23 -1 33 30 61 67 62 215 126 290 126 16 0 43 -39 127
-187 125 -220 236 -429 360 -677 l89 -178 52 6 c63 9 138 34 239 80 l78 35
-21 58 c-37 99 -122 288 -247 548 -163 341 -278 615 -268 640 8 22 117 98 173
121 93 38 93 38 137 -73z"/>
<path d="M8976 11782 c-352 -581 -620 -1064 -751 -1350 -63 -139 -63 -140 18
-162 49 -14 84 -6 140 31 54 36 67 52 337 439 233 333 434 608 525 714 78 92
84 119 44 188 -56 96 -107 155 -170 197 -33 22 -66 41 -73 41 -6 -1 -37 -44
-70 -98z m185 -51 c39 -44 99 -140 99 -158 0 -6 -46 -68 -103 -140 -114 -144
-310 -412 -522 -718 -257 -370 -279 -395 -357 -395 -36 0 -39 2 -32 23 17 55
267 536 403 775 150 262 357 612 393 665 19 27 20 27 50 10 17 -10 48 -38 69
-62z"/>
<path d="M8073 10234 c-91 -33 -183 -151 -183 -236 0 -85 68 -158 147 -158
115 0 273 161 273 278 0 103 -115 159 -237 116z m155 -60 c48 -34 17 -140 -64
-216 -41 -38 -117 -70 -149 -62 -68 17 -88 119 -36 190 33 46 55 66 96 87 39
21 124 22 153 1z"/>
<path d="M8184 9372 c-17 -31 -70 -126 -117 -210 -92 -165 -142 -289 -152
-374 l-6 -53 59 110 c32 61 89 160 126 220 36 61 66 120 66 132 0 12 18 59 40
105 39 80 47 118 25 125 -5 1 -24 -23 -41 -55z"/>
<path d="M6958 9104 c-7 -6 45 -55 154 -143 43 -34 97 -84 120 -112 24 -27 46
-49 51 -49 4 0 16 9 27 20 15 15 19 27 14 48 -12 49 -34 82 -54 82 -11 0 -20
4 -20 9 0 9 -169 119 -213 139 -31 13 -70 16 -79 6z"/>
<path d="M7630 3368 c-107 -7 -138 -12 -148 -26 -7 -9 -43 -32 -80 -52 -58
-30 -76 -48 -134 -125 -38 -49 -75 -104 -83 -121 -38 -80 -56 -310 -35 -441 9
-54 22 -79 101 -195 49 -73 96 -136 103 -140 26 -15 202 -38 286 -38 138 0
245 33 317 97 l31 28 -9 65 c-5 36 -8 114 -7 174 l3 109 -40 21 c-59 30 -151
34 -203 7 -22 -11 -44 -26 -48 -32 -20 -33 5 -164 30 -156 6 2 23 28 38 57 30
58 42 70 74 70 39 0 64 -36 64 -93 0 -71 -17 -124 -42 -138 -32 -17 -146 -6
-194 19 -45 23 -100 80 -115 121 -64 168 13 371 169 448 48 24 70 28 137 28
50 0 99 -7 131 -18 110 -38 242 -198 290 -352 l26 -84 112 93 c144 120 260
208 392 296 114 77 110 70 62 126 l-19 21 -62 -33 c-109 -57 -299 -110 -331
-92 -26 14 -19 35 39 124 56 86 105 176 105 192 0 5 -21 12 -47 16 -27 3 -61
13 -77 21 -24 13 -84 15 -365 14 -185 -1 -397 -6 -471 -11z"/>
<path d="M8641 3277 c-6 -19 -32 -67 -56 -107 -25 -40 -44 -74 -42 -76 11 -11
247 81 247 96 0 11 -117 120 -128 120 -6 0 -15 -15 -21 -33z"/>
<path d="M1195 3170 c-49 -4 -141 -16 -204 -25 -100 -16 -127 -24 -218 -71
-175 -89 -419 -262 -370 -264 38 0 136 -60 180 -110 54 -60 89 -129 116 -231
22 -79 41 -215 41 -286 0 -24 2 -43 5 -43 3 0 25 15 50 34 50 39 124 69 210
86 l60 12 2 99 1 99 -26 -15 c-15 -8 -40 -23 -56 -34 -22 -15 -34 -17 -48 -10
-45 24 -4 74 100 122 47 22 55 31 87 94 42 84 112 153 193 191 51 24 69 27
167 27 104 0 114 -2 177 -33 214 -105 289 -369 140 -492 -102 -84 -295 -95
-316 -18 -20 75 -1 115 71 152 51 26 89 21 115 -15 21 -28 24 -29 35 -13 37
50 -1 126 -68 139 -69 13 -277 -48 -304 -88 -12 -19 -12 -35 1 -117 18 -124
18 -184 -1 -200 -22 -18 -19 -28 16 -49 50 -30 145 -34 334 -12 213 24 275 45
355 118 39 34 39 36 34 91 -7 68 18 226 46 290 l20 45 -35 134 c-85 328 -178
387 -630 397 -104 3 -230 1 -280 -4z"/>
<path d="M8825 2901 c-133 -92 -307 -227 -440 -342 -68 -59 -74 -67 -74 -103
l-1 -39 128 124 c169 166 376 324 505 385 41 20 43 23 24 48 -11 15 -24 9
-142 -73z"/>
<path d="M8930 2819 c-178 -107 -380 -277 -544 -458 -87 -96 -94 -106 -116
-182 -62 -217 -198 -401 -369 -501 -54 -31 -69 -48 -118 -125 -62 -98 -259
-432 -317 -535 l-37 -66 195 99 c220 113 339 167 543 248 l142 57 47 63 c75
99 223 220 361 292 32 17 59 32 61 33 1 2 -34 -3 -80 -11 -151 -27 -385 -91
-522 -143 -98 -36 -146 -49 -172 -47 -37 5 -58 23 -46 42 26 43 331 471 395
555 188 246 422 486 582 597 50 34 99 68 109 76 16 11 17 17 7 35 -6 12 -17
22 -24 22 -7 0 -50 -23 -97 -51z"/>
<path d="M8984 2693 c-125 -85 -369 -326 -509 -506 -109 -140 -397 -539 -392
-544 2 -1 62 17 133 42 164 56 333 99 515 129 153 26 419 56 494 56 51 0 51
-1 35 95 -6 33 -15 148 -21 255 -5 107 -16 225 -24 261 -14 68 -107 279 -122
279 -5 0 -54 -30 -109 -67z m-143 -511 c37 -39 41 -49 29 -72 -15 -29 -53 -25
-89 9 -32 30 -39 59 -19 79 20 20 51 13 79 -16z m-117 -184 c8 -13 5 -23 -14
-43 -27 -28 -57 -30 -74 -3 -8 13 -5 23 14 43 27 28 57 30 74 3z"/>
<path d="M16 2254 c-15 -44 -14 -53 11 -183 14 -75 27 -142 29 -148 2 -9 10
-10 25 -4 21 7 22 14 20 77 -4 124 -40 304 -60 304 -5 0 -16 -21 -25 -46z"/>
<path d="M440 1740 c-25 -5 -80 -19 -122 -31 l-78 -22 0 -41 0 -41 153 0 c174
0 233 -12 362 -74 68 -32 118 -64 194 -125 12 -9 13 -3 7 39 -21 134 -94 234
-203 275 -65 26 -234 36 -313 20z"/>
<path d="M92 1595 c0 -16 2 -22 5 -12 2 9 2 23 0 30 -3 6 -5 -1 -5 -18z"/>
<path d="M7605 1585 c-22 -8 -50 -15 -63 -15 -13 0 -33 -10 -45 -22 -38 -38
-185 -283 -274 -453 -76 -148 -173 -358 -173 -375 0 -4 51 26 112 67 95 63
117 84 141 127 120 212 262 460 320 556 39 63 72 118 74 123 7 12 -49 7 -92
-8z"/>
<path d="M9140 1443 c-14 -2 -65 -11 -115 -19 -49 -8 -135 -24 -189 -36 l-99
-22 -73 -71 c-41 -40 -74 -77 -74 -82 0 -7 11 -8 33 -3 17 4 61 15 97 24 59
14 169 25 412 42 l88 6 20 71 c12 40 23 78 25 85 4 12 -65 15 -125 5z"/>
<path d="M350 1241 c-30 -9 -31 -37 -4 -107 17 -44 61 -84 160 -147 l42 -26
26 58 c14 32 26 73 26 91 0 47 -38 109 -79 126 -35 15 -128 17 -171 5z m162
-105 c4 -6 8 -14 8 -18 0 -13 -32 -38 -50 -38 -19 0 -50 25 -50 40 0 5 10 16
22 24 23 16 57 12 70 -8z"/>
<path d="M8060 1131 c-162 -70 -532 -252 -526 -258 2 -2 32 3 67 11 35 8 94
20 130 25 40 7 112 32 185 65 65 30 161 69 212 87 69 26 93 39 97 54 13 67 14
85 2 85 -6 -1 -82 -31 -167 -69z"/>
<path d="M9023 1142 c-9 -5 -7 -21 7 -62 11 -30 19 -64 20 -75 0 -22 21 6 74
98 l28 47 -59 0 c-32 0 -63 -4 -70 -8z"/>
<path d="M2864 1013 c-11 -2 -69 -53 -130 -114 l-109 -110 120 7 120 7 122 98
c67 54 124 103 128 109 6 10 -204 13 -251 3z"/>
<path d="M2713 1001 c-37 -5 -52 -18 -142 -113 -56 -58 -101 -108 -101 -110 0
-2 24 -1 54 2 52 6 59 10 163 105 59 54 115 105 123 112 12 11 9 13 -20 11
-19 0 -54 -4 -77 -7z"/>
<path d="M3163 957 c-33 -29 -78 -74 -99 -102 -71 -91 -144 -195 -144 -205 0
-5 12 -5 30 1 22 8 63 55 156 181 69 93 124 172 122 173 -2 2 -31 -20 -65 -48z"/>
<path d="M999 937 c-37 -42 -47 -62 -53 -104 l-7 -52 67 -21 c36 -11 70 -20
75 -20 14 0 10 105 -7 181 -8 38 -19 69 -22 69 -4 0 -28 -24 -53 -53z"/>
<path d="M2470 965 c-236 -45 -486 -127 -663 -217 l-98 -51 40 -18 c61 -27 53
-45 -21 -52 -35 -3 -70 -1 -81 5 -17 9 -28 1 -76 -47 l-56 -57 80 4 c64 4 88
10 120 30 58 36 153 83 200 98 22 7 47 18 55 25 8 7 35 15 60 18 25 3 77 12
115 21 39 8 114 22 168 30 111 17 120 22 252 155 93 94 97 92 -95 56z"/>
<path d="M8190 952 l-45 -16 45 -7 c25 -4 55 -8 68 -8 22 -1 22 0 6 24 -19 29
-15 28 -74 7z"/>
<path d="M2761 633 c-39 -31 -69 -58 -67 -61 13 -12 78 24 121 68 67 68 36 64
-54 -7z"/>
<path d="M2584 670 c-80 -7 -81 -8 -122 -52 -23 -25 -76 -72 -117 -104 -41
-32 -73 -59 -72 -61 2 -1 49 10 105 25 96 25 108 32 207 107 100 77 120 97 93
94 -7 -1 -49 -5 -94 -9z"/>
<path d="M985 643 c14 -15 85 -36 93 -28 9 9 -19 25 -45 25 -12 0 -30 3 -40 6
-12 5 -15 4 -8 -3z"/>
<path d="M2342 643 c-13 -3 -66 -40 -117 -83 -50 -42 -115 -95 -143 -116 -28
-21 -50 -40 -47 -42 2 -2 39 4 82 13 l78 17 115 109 c106 100 113 109 85 107
-16 0 -41 -3 -53 -5z"/>
<path d="M5855 631 c22 -23 361 -221 378 -221 12 0 -17 28 -74 71 -52 40 -114
89 -139 109 -38 32 -55 39 -110 45 -46 5 -62 4 -55 -4z"/>
<path d="M2085 590 c-61 -15 -134 -38 -164 -50 -75 -29 -180 -92 -214 -128
l-28 -29 55 9 c110 17 282 91 421 182 39 25 63 45 55 45 -8 0 -65 -13 -125
-29z"/>
<path d="M1223 585 c-3 -9 -4 -18 -2 -20 3 -2 48 -11 101 -20 l97 -17 25 29
c13 15 24 29 23 29 -1 1 -55 4 -120 8 -101 5 -118 4 -124 -9z"/>
<path d="M5626 582 c-3 -5 13 -24 35 -42 27 -21 38 -26 31 -14 -16 29 -59 67
-66 56z"/>
<path d="M6185 554 c28 -22 156 -86 161 -81 6 6 -90 60 -142 81 -36 15 -37 15
-19 0z"/>
<path d="M7751 470 c-51 -11 -135 -33 -185 -50 -154 -51 -160 -71 -7 -24 98
30 187 30 219 0 19 -16 24 -16 100 4 75 19 252 77 261 86 2 2 -63 4 -145 3
-103 0 -178 -7 -243 -19z"/>
<path d="M2573 458 c-48 -14 -95 -43 -210 -128 -130 -96 -274 -212 -270 -217
1 0 36 4 77 11 70 11 82 16 150 71 134 107 325 274 318 279 -2 2 -31 -6 -65
-16z"/>
<path d="M2230 369 c-41 -10 -138 -31 -215 -45 -111 -20 -150 -32 -188 -56
-26 -17 -46 -33 -43 -35 7 -8 208 26 312 53 83 21 190 67 219 95 12 12 6 11
-85 -12z"/>
</g>
</svg>
